<svg xmlns="http://www.w3.org/2000/svg" viewBox="0 0 509.41 694.54"><defs><style>.cls-1{fill:#459347;}</style></defs><g id="Capa_2" data-name="Capa 2"><g id="Layer_1" data-name="Layer 1"><path class="cls-1" d="M286.3,6.62c2.57-3.39,6.15-6.5,10.63-6.62,1,3.45,1.76,7,2.67,10.47,3.19-1.06,5-3.92,7.53-6,5.08-.44,7.3,5.65,9.63,9.15-4,.54-5.77-3.85-8.31-6.14-.93.81-1.83,1.63-2.7,2.48,2.73,3.19,5.4,6.72,5.95,11,.43,5,2,9.94,1.19,15-.34,2.78-3.06,4.44-3.75,7-.19,5.25,1.18,10.39,1.13,15.64,5.36,0,11.09-.91,15.93,2-.09,3.45.09,8.4-3.76,9.92-6.47,2.24-13.17,3.76-19.63,6,5.67,4,12.1,7.15,16.64,12.48,4,5.92,9.12,11.14,12.28,17.63,3.8,6.65,4.22,14.63,7.95,21.31,2.15,3.63,2.6,7.92,4.29,11.75,2.91,7,5.33,14.22,8.59,21.09,2.46,5.73,3.95,11.86,6.75,17.46A242.81,242.81,0,0,1,369.42,201a249.54,249.54,0,0,0,14.44,34.43c2.18,6.25,6.07,11.84,7.28,18.43a139.32,139.32,0,0,0,3.95,14.88c2,5.54,4.4,11.17,4.13,17.17a98.82,98.82,0,0,1-.32,9.89c-2,3.24-4.92,7.16-9.21,6.77-6.63-.37-11.42-5.6-16.51-9.26s-6.8-9.84-10.85-14.3c-.06,4-.5,8.15.59,12.08,2.06,7.13.89,14.61,1.23,21.91.29,3,1.08,5.9,1.5,8.88,1.2,7.53-.28,15.2.8,22.73A44.48,44.48,0,0,1,368,358.05c-.34,5.42,2.22,10.48,2,15.89-.17,11.37,0,22.75-.09,34.13-.17,5.58,2.42,10.82,2.16,16.4-.24,5.18-.07,10.38-.2,15.57-.33,5.74,2.25,11.16,2,16.91.37,10-1.29,20-.09,30,.14,22.65,0,45.3.09,67.94.27,8,1.66,16,1.5,24.07-.13,17.33.11,34.66,0,52-.34,5.34,1,10.59.94,15.94,0,5.91.31,11.84-.12,17.74-1.17,3.31-2.64,6.52-3.82,9.83,10.77.12,21.57.17,32.29-1,15.61-1.19,31.28-.7,46.94-1,9.05-.24,18-2.28,27-2.2,10.27,0,20.54-.1,30.82,0l-.65,2c-14,2-28.34-.32-42.4,1.56-2.15.3-4.32.38-6.47.57-10.68,1.63-21.52.78-32.28,1.06a357.16,357.16,0,0,0-38,1.7c-6.18.27-12.38-.26-18.54.31-3.37,1.65-5.55,5.22-9.28,6.27A129.15,129.15,0,0,1,344,688.46a23.05,23.05,0,0,1-9.27.62c-5.62-1-11.6-.72-16.73-3.52-4.07-1.71-7-5.07-9.84-8.35-5-.08-10.12.28-14.58,2.74-9.34,2.85-19.48,1.77-28.75,5-5,1.91-10.43,1.78-15.54,3.27-9.28.75-18.37,2.94-27.62,4-10.15.38-20.34-.33-30.47.68-11.08,1.88-22.34,1.73-33.55,1.51-7.41.12-14.64-1.71-22-2.52-7.87-.47-14.61-6.08-18.43-12.69a215.44,215.44,0,0,1-22.59-.47,216.86,216.86,0,0,1-31,0c-13,1.29-26,0-39-.55-8.15-1-16.44,0-24.53-1.62,0-.57,0-1.69-.07-2.25,13.88.48,27.74,1.25,41.61,1.94,25.19.09,50.38,0,75.57.11-1.44-9.07-.93-18.25-.78-27.38,1.71-16.94,0-34,1.57-51-.07-42,0-84,0-126-.2-4.38.86-8.63,1.49-12.91,1-5.49-.12-11.15,1.4-16.56,1.61-12.2-1-24.76,2.23-36.77a121,121,0,0,1,1.87-19.18c.13-6.62,1.94-13,2.34-19.62.92-8.64,3.06-17.17,2.87-25.9.1-3.91-.11-7.83.45-11.71.84-5.34-.06-10.81,1-16.11,1.16-5.5,1.71-11.09,2.73-16.61a17.81,17.81,0,0,1-16.9-9.83c-.71-2.16-.2-4.51-.15-6.73,1.83-11.5,6.19-22.36,9.62-33.43a130.31,130.31,0,0,1,5.53-14.55c2.79-6.41,6.71-12.3,9-18.95s5.93-12.73,7.26-19.68a115.54,115.54,0,0,1,11.33-24c3.95-7.32,6.35-15.32,9.25-23.08,2.76-4.85,5-10,7.9-14.75,3.15-7.7,8.9-13.86,13.17-20.91,3.32-5.52,7.41-10.52,11.19-15.73,3-4,7.16-6.88,10.1-10.89,2.05-3,1.3-6.71,1.38-10.07-.28-5.14,1.71-10,2.14-15.08.3-3.62.8-7.22,1.17-10.83.46-4.94,3.66-9,6.72-12.67,3.72-3.77,7.61-7.73,12.75-9.47,6.63-2.11,14,1.81,17.31,7.65,1.72,4.85,5,8.85,7.4,13.36,3,6.27,8,11.6,9,18.72,5.09-.57,10.07-1.83,15.14-2.51a19.36,19.36,0,0,0,6.35-2c.51-5.06.14-10.19.26-15.27.28-4.91-3.77-8.9-3.1-13.89.53-5.44-.59-11.12,1.39-16.34.87-2.61,3.56-3.75,5.49-5.45.77-2.06,0-4.38.13-6.54C292.37,5.15,289.58,7,286.3,6.62Zm7.17,8.22c-2.55,3.7-2.5,8.43-1.51,12.64l3.28,1.19c-.55-1.61-1.08-3.23-1.52-4.87,2,.54,3.87,1.35,5.88,1.77a45.56,45.56,0,0,0,5.73-1.86c-.14,1.38-.29,2.77-.45,4.15l4.24-.55c.17-4.32-.6-8.95-3.41-12.37C301.83,13.61,297.21,12.55,293.47,14.84Zm-2.65,16.85a15.36,15.36,0,0,0,8.77,1.93c3.68-.14,8.11.62,10.62-2.76C303.74,30.19,297.28,31.42,290.82,31.69Zm.3,4c5.74,2.69,12.53,2.17,18.38.09C303.41,35.06,297.22,35.41,291.12,35.71Zm1.79,4c5,2,11.07,2.57,15.55-1.05C303.29,39.3,298.09,39.31,292.91,39.67Zm12.19,3.41q.18,8,.2,16.1l1.81.57c.18-5.33,0-10.66-.14-16Zm-10.64,0c-1,6.29-2,13,.18,19.12C295.61,55.94,296,49.26,294.46,43.07Zm3.64,1.08c.15,5.2-.06,10.42.59,15.59l4.66-.12c0-5.09-.87-10.1-1.32-15.14ZM279.73,78.59c-14.59,2.69-29,6.48-43.9,7.43-7.84.56-15.56,4-23.45,2-8.51,7.65-15.11,17.15-21,26.88-5.28,7.54-12.06,15.06-12.5,24.73-2.14,7.83-3.88,15.82-7.13,23.3-4.83,11.94-5.23,25-8.58,37.28-1.87,11.24-6.25,21.87-7.84,33.17-1.53,10.2-2.4,20.5-4.11,30.69-.41,9-3.6,17.63-7.54,25.68-1.39,2.88-4.38,4.52-5.92,7.27-1.64,4.49-1.8,9.34-2.85,14-1.53,6-.39,12.21-1.61,18.25,0,9.26-.73,18.47-1.42,27.69-.56,3.67-1.75,7.25-1.69,11,.17,5.79-1.86,11.34-2,17.11s-2.57,11.17-1.68,16.82c1.74,4.66,7.21,6,11.29,7.93,6.19,3.16,13.25,3.47,19.82,5.46,7.85,2.73,16.36,2,24.31,4.42,12.37,2.69,25.1,2.76,37.65,3.93,13.65,0,27.31,0,41,0a59,59,0,0,0,7.81-1.23c-1-13-4.87-25.63-6.32-38.59-6.71,2.78-13.36,5.86-20.49,7.4a82.11,82.11,0,0,1-11,0A16.93,16.93,0,0,1,220.38,383c-1.4-4.3.54-8.65,2-12.66a10,10,0,0,0-5.79-.39c-4.19.9-8.38-.22-12.51-.82-1.58,1.81-3,3.87-5,5.17-7.68,4-16.95,3.69-24.78.24-1.79-8.42-4-16.72-6.31-25a10.66,10.66,0,0,1,3.54-11.74,34.76,34.76,0,0,1,10.29-5.2c4.28-.51,8.62.17,12.92-.19,4.1-.36,8.66.82,11.13,4.34,2.55,2.77,1.19,6.83,1.21,10.2l2.13-.34c.27-4.68,2.16-9.36,6.53-11.6,9.11-3.87,19.21-4.15,29-3.67,7.53-.63,14.93,1.34,22.11,3.37,8.12,2.68,12.45,10.88,14.68,18.59,3.32,10.4,5.2,21.18,7.25,31.88,1.23,4.43,1.91,9,2.74,13.51,1.9,6.93,1.49,14.23,3.42,21.18A67.1,67.1,0,0,0,306,418.3c6.87-1.59,14.14-1.26,20.78-3.85,6.23-2,12.57-3.8,18.48-6.68,4.78-2.67,10.19-4.16,14.57-7.54,3.09-2.28,7.75-4.61,7.1-9.17-.33-8.46.78-17.05-1.23-25.36-1.45-5.68.15-11.65-1.53-17.3-2.64-9.71.42-20-2.24-29.68-1.31-5.84-.65-11.86-.74-17.78,0-5.42-2.22-10.58-2-16,.11-3.13-.77-6.14-1.44-9.16-1.25-5.56.47-11.4-1.26-16.87-1.15-3.72-2.57-7.37-3.1-11.23-2.17-17-4.85-34-8.47-50.81-2.43-12.86-3.48-25.93-5.67-38.82a166,166,0,0,1-5.09-26c.39-2.39,1.54-4.73.89-7.19a97.73,97.73,0,0,0-4.73-14.65c-2.87-7.23-8.56-12.71-13-18.92-6-6.75-14.33-11-22.8-13.93C289.57,77.29,284.7,78.54,279.73,78.59ZM183,335.7c-4.43,1-9.1,3.13-11.62,7.08-1,2.45-1.15,6.45,2,7.35,4.74,2.08,9.94,4.06,15.19,2.88,4.87-1.06,10-2.75,13.49-6.48,1.78-2.55,3.28-7,.05-9.08C196.37,334.1,189.34,335.72,183,335.7Zm34.25,2c-2.93,1.36-3.74,4.81-5.28,7.37a32.42,32.42,0,0,0,4.68,7.59c10.39-.08,20.91-4.33,31.16-1.07.28,1,.58,2,.88,3a155.21,155.21,0,0,0-20-.12c-5.35.34-10.28,5.13-9.73,10.69a22.84,22.84,0,0,0,6.74,2.63,56.46,56.46,0,0,0,21.94-.59c-.81,1.54-1.29,3.59-3.33,3.83-4.18,1-8.55.38-12.81.54-2.34.19-5.16-.55-7,1.32-2.4,2.13-1.59,5.78-1.37,8.61,1.36,3.88,5.53,6.18,9.42,6.86,11.29,1.37,21.55-4.68,31.3-9.5,2,4.65,1.71,9.8,2.8,14.67,1.13,5.62,2.22,11.26,3.43,16.87,4.94,0,10,.57,14.86-.27,1.65-.6,3.94-.63,4.88-2.34.38-2.43-.49-4.79-1.11-7.08-1.78-5.52-2-11.36-3.44-16.95-2.67-11.1-3.84-22.63-8.18-33.26-2.89-6.06-7.28-12.66-14.45-13.76-10.71-3.25-22-2-33-2.24C225.49,335.19,221.19,335.93,217.28,337.71Zm-13,14.22c2.65.91,5.35,1.7,8,2.68-.35,2.86-.83,5.7-1.26,8.55-2.47.21-5,.16-7.41.41a1.78,1.78,0,0,0,.34,2.77c4.06.54,8.17.25,12.26.33a13.61,13.61,0,0,1,2.18-9.8,93,93,0,0,1-8.32-6.46C208,349.94,206,350.85,204.29,351.93Zm-19.75,4.45c-4.35-.5-8.43-2.22-12.59-3.47,1.65,5.64,3.08,11.34,4.35,17.08.2,2,2.24,2.7,3.8,3.4,3.85,1.88,8.16.49,12.16-.06,2.76-.76,6.67-1.09,7.5-4.43,1-6,1.33-12.08,2.64-18C196.9,353.82,191,356.91,184.54,356.38Zm19.74.13c0,1.3-.06,2.61-.05,3.92l4.13.09q0-2.07.06-4.11C207,356.43,205.65,356.47,204.28,356.51ZM354,407.06c2.49,8,2,16.52,2.37,24.83,4.31-2.71,9.53-4.72,12.45-9.05.39-4.38-1.82-8.46-1.87-12.8-.07-3.48,0-7-.11-10.42C362.44,401.92,358.34,404.71,354,407.06Zm-227.75,0c-1.74,7.25-2.62,14.87-1.3,22.26,2.64.92,5.29,1.82,8,2.51A92,92,0,0,1,134.21,412,68.36,68.36,0,0,1,126.23,407.1Zm211.59,7.43c2,7.67,3.14,15.52,4.56,23.32,3.61-1.41,7.25-2.75,10.87-4.13-.12-8.46.83-17.17-1.62-25.38C347.09,410.55,342.36,412.32,337.82,414.53Zm-201-1.5a117.52,117.52,0,0,0-1.67,14c.1,2.12-.5,4.6,1.12,6.32,2.91,1.55,6.25,2,9.49,2.4.54-6.52,2.5-12.77,3.79-19.15C145.26,415.69,141.07,414.29,136.85,413Zm133.21,1.28c.62,4.55,1.11,9.13,1.89,13.66,0,13.32,3.23,26.36,4.31,39.6,1.74,6.62,1.57,13.48,2.67,20.2,1.19,8.7,1,17.52,2.17,26.22.23,5.68,1.26,11.29,1.27,17,1.64,13.7,5.53,27.12,5.79,41,3.57,22.14,4.9,44.66,9.56,66.66,1.6,8.08,2.79,16.43,6.54,23.87,2.21,4.35,4.41,8.72,6.86,12.94,2.14,3.91,6.23,6.12,10,8.2,5.28,2,11.06,1.51,16.55,2.59,10.23-1.39,21-3.29,29.24-10a21.21,21.21,0,0,0,5.22-11.16c1.5-7.16,1.28-14.54,1-21.8-1.63-9.34-.57-18.87-.87-28.29-.37-18.29.92-36.64-1.15-54.85-1.32-10.33-.69-20.76-.82-31.15.19-17.67-.47-35.36.49-53-.77-7.66-.42-15.37-.47-23.05,0-3.7-1.66-7.16-1.49-10.87.09-4.68-.59-9.31-.58-14a119.19,119.19,0,0,1-30.6,14.84c-8.47,2.75-17.3,3.92-26.05,5.36-4.43.5-9.61-.2-13.47,2.09-.44,5.57,1.07,11,1.06,16.58.12,3.66,1,7.24,1.15,10.91,1.27,6.61.37,13.4,1.84,20,1.9,7.67-.1,15.66,1.35,23.36,3.49,8.49,2.86,17.83,4.16,26.76.86,8.42,3.64,16.58,3.59,25.11,0,5.76,2.69,11.06,3,16.77,1.09,9.07,2.84,18.07,3.74,27.17-.25,6.85,2.18,13.37,4.21,19.81A46.82,46.82,0,0,1,335,629.32c4.66-2,9.46.59,14,1.67-1.61-9.27-.45-18.67-.64-28-.14-8,.33-16-.39-24-.2-4.63.17-9.3-.72-13.87-.75-8.35-.13-16.75-.43-25.12-.25-3.68-1.08-7.3-1-11,.18-9.33-.05-18.66.1-28-.13-2,1.95-3.08,3-4.47.29,4.48-.24,9-.07,13.44.32,9.66-.63,19.39.92,29,.48,10.32-.81,20.73,1,31-.41,7.73,1.4,15.33,1.06,23.05-.07,8.34.36,16.71-.7,25,.19,4.81-.64,9.84.85,14.49,5.5,4.9,10.69,10.53,13.48,17.48,1.05,2.77,1.16,6.51-1.34,8.57-3,2.78-7.41,1.48-11.1,1.63.17,3.33.7,6.78-.21,10.06a11.91,11.91,0,0,1-11.6,3.07c-2.38-1.57-4.16-3.85-6.06-5.9-.94,2.61-.81,6.35-3.89,7.54-4.84,1.81-10.5-1.57-12.25-6.24-2.49-4.89-1.88-10.5-2-15.79-.15-4.35,1.61-8.51,1.25-12.88.21-6.2-2.43-12-3.1-18.06-.06-10.78-3.15-21.25-4-32-.07-5.83-3.4-11.13-3-17,.41-8.28-2.6-16.12-3.48-24.25-1.06-5.68-.55-11.51-1.73-17.18-.47-5.28-3.37-10.11-3-15.49.1-6.95.3-13.93-1.13-20.77-1.31-5.11-.33-10.43-1.47-15.56-1.29-15.84-3.08-31.65-4.31-47.51-.12-4-2.37-7.63-2-11.64A23,23,0,0,0,290,412.2C283.6,414.74,276.63,412.66,270.06,414.31ZM320,419.84c2.74,7.4,2.64,15.39,4.2,23.05a62.84,62.84,0,0,0,15.21-4.22c-.27-5.29-1.66-10.42-2.29-15.66a31.06,31.06,0,0,0-2.17-7.74C329.92,416.72,325,418.28,320,419.84ZM148.82,436.57c5.16.92,10.24,2.23,15.37,3.32,1.27-6.44,2.48-12.9,4.32-19.21-5.56-.17-10.68-2.51-16.11-3.37C150.61,423.59,148.91,430,148.82,436.57Zm22.48-15.31c-2.48,6.29-3.3,13-4.23,19.66a80.51,80.51,0,0,0,15.75,3.71c1.24-6.78,3.07-13.42,4.83-20.07C182.32,423,176.92,421.21,171.3,421.26Zm132.35.63c1.06,8,3.81,15.67,4.79,23.71,4.33-.66,8.66-1.34,12.94-2.28-1.79-7.64-.82-15.86-4.48-23C312.41,420.13,308,421.13,303.65,421.89Zm-8.82,1.67c1.58,7.72,1,15.69,3.37,23.27,2.37-.43,4.72-.95,7.07-1.52-.33-7.88-2.75-15.47-5.35-22.85Zm-104.71,2.93a74.13,74.13,0,0,0-4.18,18.78c7,1.72,14.22.62,21.18,2.4-.24-7.45,1.29-14.73,3.28-21.86a147.58,147.58,0,0,1-14.86-1.05C193.64,424.7,190.84,424.1,190.12,426.49Zm23.36-.3c-2.7,6.91-4.22,14.6-2.87,21.9,7.23.64,14.51-.19,21.74.56-.09-7.31-.79-14.74.89-21.93C226.66,426.56,220,427.09,213.48,426.19Zm41.65,1.14c.16,7.35-.39,14.78.94,22.05,4.79-.09,9.59,0,14.39,0-.66-7.74-1.7-15.43-1.49-23.22A98.47,98.47,0,0,0,255.13,427.33Zm-19-.15c-1.48,5.51-.92,11.24-1.08,16.87.1,1.91-.62,4.74,2,5.11,5.31.39,10.66,0,16,.06,0-7.35-.33-14.7-.1-22.05A62.66,62.66,0,0,0,236.11,427.18Zm-111,5.19c-.54,7.57-2.46,15-2.26,22.63-.17,5.36-2,10.55-1.86,15.94-.07,42.68,0,85.37,0,128.06.47,6-1.09,12-.76,18,.31,10.68-.4,21.35-.31,32-.35,10.4-2.64,21.69,2.36,31.38,2.4,3.55,5.7,7.11,10.18,7.74,8.12,1,16.1,3.15,24.33,3.31,11.48.25,23.1.7,34.39-1.81,8.46-.63,17-.14,25.46-.22,6,.39,11.78-1.92,17.77-2.21,6.45-1.51,13.09-1.73,19.53-3.25,8.62-.93,16.69-4.62,25.42-4.93-.12-4.7-1.33-9.37-.63-14.06.25-2.91.22-5.83.2-8.73a87.92,87.92,0,0,1-14.28,1.42c-9.3,1.46-18.52,4.27-28,3.72-4.38.08-8.51,2-12.9,2-10,1.31-20.07,1.57-30.05,2.83-5.41,0-10.84-.34-16.19.66-6.66.19-13.2-1.59-19.65-3-5.85-1.26-11.68-4-15.44-8.76-3-5.85-2.26-12.76-2.44-19.13.29-7.84-.59-15.73.66-23.51,1.68-14.51-1.89-29.08.25-43.55.07-8.28.18-16.57,0-24.84-1.51-9.32-.37-18.78-.75-28.16-.3-4,.86-7.87,2.38-11.5,3.49,3.55.3,8.3.7,12.5.32,7.68-.62,15.4.28,23.06,1,5.28.28,10.66.43,16-.15,6,.43,12-.35,18a85.74,85.74,0,0,0,.23,20.06c.29,8.64.45,17.31-.56,25.91.48,11-1.85,22.37,1.23,33.13a28.1,28.1,0,0,0,14.09,7.82c6,1.07,11.86,3.08,18,2.78,7.33-.65,14.71-.22,22-1.22,8.73,0,17.31-2,26-2.27,4.05-.09,7.84-2,11.91-1.79,11.56.8,22.46-4.78,34-4,8.72-1,17.31-3.13,25.91-4.89-1.43-10-4-19.8-5-29.85-2.2-12.69-2.92-25.57-5.35-38.23a53.29,53.29,0,0,1-1-12.47c-.69-9-2.87-17.76-3.91-26.72-2.55-10.58-2.05-21.53-3.61-32.25-.4-11.66-2.05-23.21-3.27-34.8-1.36-7.6-1.51-15.35-3.27-22.89-12.17-.05-24.33.12-36.5,0-11.06-2-22.43.34-33.41-2.45A135.71,135.71,0,0,1,160.4,442C148.49,439.41,136.18,437.88,125.13,432.37Zm201.29,205.4c-5.22,3.92-6.7,11-6.44,17.18.1,5.14-.12,11,3.61,15.1,1.83,2.21,4.81,2.34,7.46,2.32a200,200,0,0,0-.25-20.19l2.92.13c1.29,4.69,2,9.72,4.7,13.89,1.59,2.37,3.89,5.1,7.12,4.44a4.55,4.55,0,0,0,4.82-5.65c.88-7.86-6.18-12.77-8.91-19.38l3-.43c3.29,4.41,6.33,9.43,11.34,12.09a9.15,9.15,0,0,0,6.11-1c2.27-2.59,1-6.33-.81-8.79-3-4-5.37-8.62-9.78-11.18a37.51,37.51,0,0,0-12.61-4.63C334.36,633.07,330,634.82,326.42,637.77ZM282.13,655.7c0,7.68-1.26,15.59,1,23.08,7.31-2.94,15.26-3.2,22.84-5.1-2.39-7-7.17-13-8.24-20.46C292.44,653.19,287.24,654.37,282.13,655.7Z"/><path class="cls-1" d="M301.15,18.47l3.18-.22c-.07,1.07-.14,2.15-.2,3.23l-3,.07C301.12,20.53,301.13,19.5,301.15,18.47Z"/><path class="cls-1" d="M295.18,21.64c.38-1.33.81-2.65,1.29-3.95.91,1.29,1.81,2.61,2.67,3.94Z"/><path class="cls-1" d="M263.14,154.66c5.26-2.38,11.18-5.2,17-3.28,6.17,1.73,12.72,5.21,14.86,11.68.48,6.15.84,12.56-.78,18.58-2.56,5.17-6.72,10.33-12.68,11.52a38.8,38.8,0,0,1-20.66-3.47c-2.68-1.52-4.61-4-6.58-6.32-7.67,11.35-24.64,14.44-36.07,7.17a22.7,22.7,0,0,1-5.07-7.13,69.46,69.46,0,0,1,.09-15.59c1.46-5.14,6.78-7.6,10.94-10.26,5.89-3.63,13.12-2,19.32-.17,4.06,1,7.34,3.77,10.25,6.65C256.34,160.45,258.93,156.45,263.14,154.66Zm-1.88,4.93c-3.48,2.25-4.79,6.35-5.63,10.18a32.51,32.51,0,0,0,8.11-1c9.31-2.54,18.85-4,28.36-5.58-2.43-4.8-7.5-7.35-12.49-8.64C273.14,153.59,266.56,156,261.26,159.59ZM221,163.1q5,1.5,10.06,2.66c7.17,1.71,13.76,5.68,21.26,6-.46-4.67-3.38-9-7.94-10.54-5-1.61-10.35-3.49-15.72-2.46C225.89,159.73,223.48,161.51,221,163.1Zm-3.47,2.13c-2.58,6.62-3.92,15,.84,21,2.16,3.37,6.51,3.61,10,4.76,5.84,1.68,11.7-.93,16.95-3.3a13.21,13.21,0,0,0,7.19-12c-4-1.07-8-2.12-12-3.2-1.19,2.3-2.23,5.26-5.06,5.93-3.25.48-5.54-2.24-7.57-4.31.55-2,1.14-3.89,1.68-5.84A56,56,0,0,1,217.56,165.23Zm63.57,2.68c0,2.64.46,5.8-2,7.59-2.18,2.55-5.83,2.49-8.81,1.71-2.53-1-3.23-3.79-4.42-5.92-3.41.9-6.85,1.67-10.26,2.58.77,4.38,1.37,9.8,5.61,12.28a27.3,27.3,0,0,0,14.32,3.54c3.11-.21,6.76.83,9.36-1.41a20.89,20.89,0,0,0,7-8.77c.65-4.42.29-8.91.36-13.36A99.14,99.14,0,0,1,281.13,167.91Z"/><path class="cls-1" d="M238.07,212.52c4.48-5.18,7.88-11.19,12.66-16.12l2.88,1.45c-8.56,10.9-17.56,21.51-24.89,33.3-4.14,5.67-6.82,12.25-11.15,17.8-3.81,6.1-8.8,11.33-12.66,17.4a92.94,92.94,0,0,0-13.79,25.77c3.7-.34,7.78,1.05,9.08,4.87.1,3-2.44,5.13-3.72,7.63,2.91-.79,6-1.42,8.5-3.18,6.39-5,10.66-12,16.51-17.58,5.44-5.23,9.84-11.56,16-16,5.19-4.13,8.79-9.87,14-14,3.4-3.29,7.24-6.11,10.39-9.64,3.09-4.22,7.27-7.51,10.18-11.87,3.16-4.84,6.89-9.28,10.13-14.07l3.36.44c-6.11,11.11-15.08,20.31-23.5,29.68-6.51,5.83-13,11.71-18.9,18.12-3.74,4.3-8.82,7.21-12.27,11.79-4.41,5.56-10.16,9.9-14.35,15.65-5.09,5.8-10.69,12.65-18.87,13.6-4.46.4-7.51,4.47-12,4.88a31.42,31.42,0,0,1-10,0c-2.28-.81-4-2.72-5.49-4.52-.18-2.87-.66-6.49,1.92-8.48a28.47,28.47,0,0,1,14.7-6.27c1.75-3.39,3.22-6.92,4.74-10.41a145.06,145.06,0,0,1,15.79-25.07c4.31-4.84,7.45-10.54,11.21-15.8C224.23,231.59,231.06,222,238.07,212.52Z"/><path class="cls-1" d="M173.8,342.51a42.24,42.24,0,0,1,11.86-5.92c4.31-.11,9,.24,12.78,2.49,3.18,2,1.13,5.9-.8,8-2.13,2.85-5.91,3.17-9.13,3.79-4.29.83-9.19.71-12.88-1.89C173.37,347.62,174.06,344.72,173.8,342.51Z"/></g></g></svg>