<?xml version="1.0" encoding="utf-8"?>
<!-- Generator: Adobe Illustrator 24.2.3, SVG Export Plug-In . SVG Version: 6.00 Build 0)  -->
<svg version="1.1" id="Layer_2" xmlns="http://www.w3.org/2000/svg" xmlns:xlink="http://www.w3.org/1999/xlink" x="0px" y="0px"
	 viewBox="0 0 884.9 643.8" style="enable-background:new 0 0 884.9 643.8;" xml:space="preserve">
<style type="text/css">
	.st0{fill:#459347;}
</style>
<g id="Layer_1-2">
	<g>
		<path class="st0" d="M70.3,516.5c-5.7,0.6-11.9,1.4-18.2,1.7c-1.8,0.1-3.9-0.7-5.7-1.6c-2.3-1.1-4.4-3.1-6.8-3.9
			c-6.8-2.2-10-8.3-14.8-12.7c-6.3-5.8-10-13.4-12.1-21.5c-1.5-5.8-1.2-12-2-18c-0.7-5.2-1.9-10.4-2.5-15.6
			c-1.3-10.1-2.5-20.3-3.4-30.5c-0.9-9.9-1.5-19.8-2-29.7c-0.3-5.9,0-11.8-0.2-17.6c-0.4-10.3-1-20.6-1.4-30.9
			c-0.6-14.4-1.4-28.7-1.3-43c0-11.7,0.9-23.5,2-35.2c0.4-4.8,1.4-9.2-0.4-14.1c-0.8-2.2,1.2-5.3,1.2-8.1c0-5.5-0.6-11-0.5-16.4
			c0.1-5.9,0.8-11.7,1.2-17.6c0.5-6.5,2-13.2,0.9-19.5c-0.9-5.1,0.6-9.4,2.2-13.4c3.1-7.5,6.3-15.9,12-21.3c5.6-5.4,14-8.9,21.8-11
			c14.7-4,30.1-4.4,45-1.8c8.8,1.6,17.6,4.9,24.3,11.6c3.2,3.2,7.5,5.6,10.3,9.1c3.8,4.8,6.5,10.4,9.7,15.6c1.4,2.3,3.1,4.4,4.7,6.6
			c2.2-1.6,4.8-2.8,6.4-4.9c4.4-5.8,8.5-11.9,12.5-18.1c1.1-1.8,1.8-3.9,2.5-5.9c3.9-11.5,10-21.4,19.3-29.6
			c4.7-4.1,10-4.2,15.2-5.9c7.6-2.4,14.9-0.2,22.4-0.5c0.5,0,1.1-0.3,1.5-0.1c5.9,3.3,12.5,5.8,17.4,10.2c6.2,5.5,11.3,12.3,15.1,20
			c4.3,8.7,9.9,16.8,13.7,25.6c2.3,5.3,2.2,11.6,3.5,17.5c0.8,3.6,1.9,7.2,2.9,10.8c0.2,0.6,0.4,1.3,0.5,1.9
			c0.5,7.1,0.6,14.3,1.4,21.4c0.8,7.3,2.4,14.6,3,21.9c0.6,7,0.2,14.1,0.5,21.1c0.2,4,0.3,8.1,1.6,11.8c2,5.6-0.4,10.8-0.3,16.1
			c0,1.6-1.1,3.2-0.9,4.8c0.8,8.1,2.1,16.1,2.7,24.2c0.5,7.3,0.2,14.7,0.6,22c0.4,7.6,1.3,15.1,1.8,22.7c0.2,2.8-0.1,5.5-0.1,8.3
			c0,7.3,0.3,14.6,0.2,22c-0.1,9.8-0.2,19.6-0.6,29.4c-0.6,12.6-1.6,25.2-2.4,37.8c0,0.5-0.1,1-0.3,1.5c-4.3,9.6-5.6,20.2-11.8,29.5
			c-7.1,10.5-15.9,19.2-24.2,28.4c-2.1,2.3-4.4,2.7-7.5,1c-2.4-1.3-5.6-1.6-8.4-1.6c-6.1,0-12.4,1.5-18.2,0.3
			c-5-1.1-10.1-2.7-14.5-7.1c-7.3-7.4-11.4-16.6-16.3-25.1c-3.9-6.8-3.1-16.3-4.2-24.6c-0.2-1.3,0.4-2.7,0.1-3.9
			c-3.1-11.1-4.9-22.1-0.7-33.5c1.7-4.4,1.7-9.5,2.3-14.3c1.1-8.7,2.6-17.5,3.2-26.3c0.7-10.3,0.4-20.6,1.1-30.9
			c0.4-5.2,2.1-10.2,3.1-15.4c1.1-6.2,1.1-12.8,3.4-18.6c2.5-6.3,2.8-13,5.3-19.4c3.4-8.8,2.9-19.1,4.1-28.8c0.4-3.3,1.3-6.7,1.1-10
			c-0.4-6.9-1.2-13.7-2-20.5c-0.4-3.4-1.2-6.8-1.7-10.1c-0.9-6.2-3.6-11.4-8.7-15.1c-3.9-2.8-7.1-1.5-10.1,2.2
			c-4.8,6-2.4,12.6-2.9,19c-0.4,5.3-0.8,10.5-1.5,15.8c-0.6,4-1.9,7.8-2.4,11.8c-1.1,7.7-5.6,11.3-13.1,12.8
			c-8.4,1.6-15.5,0.3-18.9-5.3c-2.4-3.9-4-8.4-5.8-12.6c-1.2-2.9-1.9-6-3.2-8.9c-2.4-5.3-7.3-6.8-12.4-3.9
			c-5.8,3.2-8.6,9.8-7.5,17.7c0.9,6.6,2.1,13.1,2.8,19.7c1.7,15.9,3.2,31.8,4.8,47.7c1.6,15,3.5,30.1,4.7,45.1
			c0.7,9.2,0.2,18.5,0.5,27.8c0.1,4.2,0.8,8.5,1.2,12.7c0.1,1.1-0.2,2.2-0.2,3.4c-0.3,5.4-0.6,10.9-1,16.3
			c-0.5,7.5-1.1,14.9-1.8,22.4c-0.2,2.3-1.4,4.7-0.9,6.8c1.5,7.7-1.1,15-4,21.2c-4.2,8.9-7.5,19.4-19.6,22.2
			C82.4,512.9,77.6,518,70.3,516.5L70.3,516.5z"/>
		<path class="st0" d="M820.4,442.8c-0.5,8.5-0.9,17.1-1.3,25.6c-0.2,4.3,3.4,7.9,7.8,8.5c4.8,0.6,9.6,1.4,14.4,2.2
			c6.4,1,12.9,1.9,19.3,3.3c2.2,0.5,4.5,2.2,5.9,4c4.2,5.6,6.2,12.2,8,18.8c0.7,2.7,3,5,3.6,7.7c0.9,3.8,1,7.8,1.5,11.7
			c0.8,7.4,1.7,14.8,2.4,22.2c0.6,6,1,12.1,1.5,18.1c0.5,5,1.4,9.9,1.5,14.9c0.1,3.4-0.8,6.9-1.6,10.2c-1.5,6.3-4.5,12.4-4.7,18.7
			c-0.2,7.3-3.5,12.3-8.8,15.7c-4.2,2.7-9.5,3.8-14.5,5.2c-3.4,1-7,1.4-10.5,1.9c-6.1,0.8-12.3,1.5-18.4,2.2
			c-0.8,0.1-1.7-0.1-2.5-0.1c-11.5,0.5-23,1-34.5,1.3c-4.8,0.2-9.5,0.3-14.3,0c-12-0.8-17.9-6.7-18-18.6c0-18.5,0.5-37,0.5-55.4
			c0-14-0.8-28.1-0.5-42.1c0.2-11,1.8-22,2.3-33.1c0.3-5.6-0.8-11.2-0.5-16.8c0.4-8.9,1.5-17.8,2.2-26.8c0.8-11,1.8-22,2.2-33
			c0.2-7-0.7-14-0.7-21.1c0-9.5,0.6-19.1,0.6-28.6c0-7.9-0.7-15.9-0.9-23.8c-0.1-4.1,0.3-8.2,0.4-12.3c0.1-11.8,0.3-23.6,0.2-35.5
			c-0.1-11.6-0.3-23.2-0.7-34.7c-0.2-7.2-0.8-14.5-1.1-21.7c-0.2-4.9,0.2-9.9-0.3-14.9c-1.3-11.2-3-22.3-4.5-33.4
			c-1.2-9.1-2.8-18.1-3.3-27.2c-0.3-4.5,1.7-9.1,1.9-13.7c0.2-7.2-0.5-14.4-0.4-21.6c0-4.8,1.2-9.5,1.2-14.3
			c0-10.5,6.2-17.8,12.7-24.6c2.3-2.4,7-2.5,10.4-4.1c2.6-1.2,4.9-3.1,7.5-4.4c1.6-0.8,3.7-1.9,5.2-1.5c5.4,1.4,10.6,1.1,16-0.2
			c2.2-0.6,4.8,0.5,7.2,0.8c5.9,0.5,11.9,1,17.8,1.5c5.1,0.4,13.7,9.4,14.5,14.6c1.8,11.2,4.1,22.4,5.6,33.6
			c1.1,8.4,1.6,16.9-1.6,25.1c-2.2,5.8-10.6,11.1-16.8,10.9c-3.3-0.1-6.7,1.2-10.1,1.6c-1.9,0.2-3.9,0.1-5.7-0.4
			c-3.5-1-5.1,0.3-5.1,3.8c0,2.8,0.1,5.6,0.5,8.4c1.4,10.5,2.9,20.9,4.3,31.4c0.1,1,0.4,2,0.5,2.9c0.5,5,1.2,10,1.5,15.1
			c0.5,6.4,0.5,12.8,1.1,19.1c0.2,2.1,1,5.5,2.1,5.7c2,0.5,4.7-0.5,6.6-1.7c8-4.7,16.3-8,25.7-6c2.2,0.5,4.4,3.4,5.5,5.7
			c4.1,9.1,8,18.2,11.4,27.6c3,8.2,5.6,16.6,7.5,25.2c1.3,5.9,1.1,12.1,1.6,18.2c0.7,7.5,1.8,14.9,2,22.4c0.2,8.5-0.2,17-0.5,25.5
			c-0.2,5.8-0.5,11.5-0.8,17.3c-0.3,7.6-3.7,14-8,19.9c-3,4.1-5.9,8.5-9.7,11.7c-2,1.7-5.9,1.3-8.9,1.4c-2.5,0-5-1.2-7.4-1
			c-6.8,0.9-13.9,1.4-20.2,3.8c-2.8,1.1-4.6,6.3-5.6,10c-1.5,5.4-1.8,11.1-2.5,16.7C820.1,442.8,820.2,442.8,820.4,442.8
			L820.4,442.8z"/>
		<path class="st0" d="M520,344.1c-0.7,11.6-1.3,20.8-1.8,29.9c-0.2,4.7,0.5,9.6-0.2,14.2c-1,6.1-2.7,12.1-4.6,17.9
			c-1.2,3.8-2.8,7.1,1,10.4c0.7,0.6,0.9,2.1,0.8,3.2c-0.9,8.9-1.6,17.9-3.2,26.7c-1.2,7.1-3.7,14-5.5,21.1
			c-2.4,9.4-2.7,18.8-0.9,28.5c1.3,6.7,3.7,11,10.7,12.2c2.3,0.4,3.8,0.1,4.4-2.5c1.2-5,4.7-9.7,2.6-15.3c-0.3-0.7,0.5-1.8,0.9-2.7
			c2.4-5.8,4.6-11.4,4.1-18.1c-0.4-6.1,1.7-12.3,1.8-18.5c0.2-8.1-0.3-16.3-0.6-24.5c0-0.3-0.3-0.7-0.2-1c2.6-9.3-1.9-18.4-1.1-27.6
			c1.4-16.6-1.9-33.2,2-49.8c2.1-8.8,3.3-17.8,9.1-25.1c1.2-1.6,3.6-3.2,5.4-3.2c7.3,0,14.9-0.3,21.9,1.4c4,1,7.7,5,10.5,8.6
			c3.5,4.5,6.6,9.6,8.7,14.9c1.5,3.6,1.2,8,1.3,12c0.2,6.3,0.1,12.5,0.3,18.8c0.1,3.5,0.5,6.9,0.6,10.4c0.3,7.6,0.3,15.2,0.7,22.9
			c0.3,7.3,1.1,14.5,1.4,21.8c0.2,5.1,0,10.2,0,15.3c0,9,0.4,18.1-0.1,27.1c-0.5,7.5-2.2,15-3.1,22.5c-0.4,3.7,0.1,7.6-0.2,11.4
			c-0.4,5.2-1.2,10.4-1.6,15.6c-1,12.6-1.7,25.2-3,37.7c-0.5,5.2,1.2,10.9-2.4,15.7c-0.3,0.4-0.3,1-0.2,1.5
			c1.2,10.5-4.5,19-7.7,28.3c-4.2,12.3-14.1,19.6-22.7,28.1c-0.3,0.3-0.8,0.6-1.3,0.8c-9.5,2.7-18.9,5.5-28.4,8.1
			c-14.8,4.1-27.7-2-40.1-8.5c-5.4-2.8-9.1-8.7-13.6-13.2c-2.4-2.4-5.1-4.7-7.1-7.4c-2-2.9-3.3-6.3-4.8-9.5c-1.8-4-3.5-8.1-5.2-12.1
			c-0.5-1.2-1.3-2.4-1.4-3.7c-1.1-16.7-2.3-33.3-2.9-50c-0.4-9.8,0.3-19.6,0.3-29.4c0-9.9-0.5-19.8-0.3-29.6
			c0.1-3.2,2.4-6.4,2.3-9.6c-0.3-10.2,2.6-20.3-0.1-30.6c-1.3-4.9,0.1-10.4,0.1-15.7c0-4.2-0.4-8.5-0.4-12.7c0-10-0.2-20.1,0.5-30
			c0.8-10.7,2.3-21.4,3.9-32.1c0.5-3.2,2.1-6.2,3.3-9.4c2.3-6.4,4.6-12.8,6.9-19.2c1.9-5.2,10.1-10.7,15.8-10.7
			c1.5,0,3.1-0.1,4.3-0.7c3.7-1.9,7-2,10.8,0.2c3.7,2.1,8.5,2.4,11.7,4.9c4.7,3.7,11.2,5.9,12.1,13.6
			C516.3,333.7,518.8,339.9,520,344.1L520,344.1z"/>
		<path class="st0" d="M675.5,596.8c-0.7-7.2-1.9-14.3-1.8-21.5c0-5.6,1.6-11.2,2.5-16.8c0.5-3.7,0.9-7.4,1.4-11.1
			c0.4-3.1,1-6.1,1.2-9.2c0.6-8.5,1-17,1.4-25.5c0.3-7.5-1.4-15.6,1.1-22.2c3.5-9.6,1.1-19,2.7-28.4c0.7-4.1-1-8.6-1.2-13
			c-0.2-5,0.2-10.1,0.4-15.1c0.2-3.9,0.5-7.8,0.6-11.7c0.3-10.2,0.7-20.4,0.8-30.6c0.1-7.9-0.3-15.8-0.1-23.7
			c0.2-8.5,0.8-16.9,1.4-25.4c0.8-11.7,1.7-23.4,2.4-35c0.4-6.5,0.3-12.8-0.5-19.4c-1-8.3,1.3-17,2.2-25.6
			c0.7-6.8,1.3-13.6,2.2-20.4c0.7-6,1.9-12,2.5-18c0.7-6,0.8-12.1,1.4-18.1c1.5-14.7-0.1-29.7,4.8-44.2c1.7-5.1,0.9-11.1,1.2-16.6
			c0.1-1.6,0.2-3.3,0.1-4.9c-0.2-5.7-0.4-11.5-0.6-17.2c-0.3-7.9-0.8-15.7-0.8-23.6c0-3.8-2.6-8-6.8-8.6c-2.3-0.3-4.7-0.2-6.9,0.3
			c-11,2.3-17.2-0.9-20.8-11.4c-1.8-5.2-4.7-10.8-4.2-15.9c0.6-6.3,1.5-13.2,6.5-18.7c6.1-6.8,12.9-12.2,21.5-15.4
			c3.3-1.2,6.2-3.8,9.4-5.5c2.7-1.4,5.6-2.7,8.5-3.7c3.7-1.2,7.6-2,11.4-2.9c5.3-1.3,10.5-2.7,15.8-4c4-1,8.2-1.6,12.1-3
			c1.7-0.6,2.7-2.9,4.4-3.7c9.5-4.6,19.7-6.6,30.1-6.9c3.3-0.1,6.9,2,10,3.8c4.6,2.6,10.5,4.7,12.8,8.8c2.6,4.5,5.8,9.7,5,16
			c-0.9,6.8-0.5,13.7-0.6,20.5c-0.1,4.3-2.8,6.2-5.8,8.9c-6.7,5.9-15.4,5.1-22.7,8.7c-8.4,4.1-17.5,6.8-26.3,9.9
			c-3,1.1-6.3,1.6-9.3,2.8c-1.1,0.4-2.2,2.2-2.3,3.5c-1.4,12.6-0.7,25,2,37.4c1.1,5,0.3,10.4,0.3,15.6c-0.1,5.9-0.5,11.8-0.6,17.6
			c-0.1,9.2-0.1,18.4,0.1,27.5c0.2,7.6,0.8,15.2,1.1,22.8c0.3,8.2,0.3,16.5,0.8,24.7c0.4,6.8,1.5,13.6,1.8,20.5
			c0.3,5.6-0.4,11.2-0.2,16.8c0.3,8.2,1.2,16.4,1.6,24.6c0.1,2.4-0.8,4.8-1.1,7.3c-0.7,6.1,1.1,12.3-2.1,18.4c-1.5,2.8,1,7.3,0.8,11
			c-0.4,8-1.6,16,0.1,24c0.5,2.2-1,4.8-1.2,7.2c-0.5,6.9-0.9,13.7-1.2,20.6c-0.1,2.3,0.4,4.5,0.6,6.8c0.1,1,0.5,2,0.2,2.9
			c-4.4,12.7-2.7,25.8-2.8,38.8c0,4.8-1,9.5-1,14.3c0.3,12.9,1.3,25.8,1.3,38.7c0,12.5-1,25-1.5,37.5c-0.1,2.8-0.5,5.7,0,8.4
			c1.9,10.5,0.5,20.9-0.2,31.4c-0.5,8.1-0.4,16.3-0.2,24.4c0.3,9.9,2.1,19.8,1.2,29.5c-1.1,11.5-13.2,22.4-26.9,18
			c-5.6-1.8-11.8-2.4-17.7-2.8c-7.1-0.4-14.1-5.3-16.2-12.1c-0.7-2.2-2.3-4-3.2-6.2c-1.6-3.7-3-7.4-4.5-11.1
			C674.4,597.2,675,597,675.5,596.8L675.5,596.8z"/>
		<path class="st0" d="M439.3,326.2c0,17.3-4.5,33.5-11.6,49.2c-3.4,7.4-8,13.7-13.4,19.8c-6.4,7.2-12.3,15-18.2,22.7
			c-5.1,6.6-10,13.4-14.9,20.2c-5.5,7.8-10.6,15.8-16.2,23.4c-4.9,6.6-10.8,12.6-15.5,19.4c-3.4,4.9-5.9,10.5-8.2,16.1
			c-1.5,3.6-2.6,7.5-2.8,11.3c-0.2,4,0.2,8.3,1.6,11.9c2.7,7.4,13.2,9.9,21.4,7.7c7.9-2.1,15.9-3.1,23.6-1c6.1,1.7,11.7,1,17.5-0.1
			c3.1-0.6,5.4-0.3,8.2,1.6c4.7,3.2,10.3,5.1,15,8.2c2.5,1.7,4.3,4.9,5.9,7.7c1.9,3.3,3.3,6.8,4.6,10.3c0.5,1.5,0.4,3.2,0.5,4.8
			c0.1,2.8-0.9,6.8,0.5,8.2c4,4,2.5,8.2,2.2,12.5c-0.1,0.8-0.4,1.8-0.1,2.5c2.8,7.5-2,13.2-5.8,17.9c-3.4,4.3-9.6,6.5-14.7,9.4
			c-1.2,0.7-3.1,0.9-4.4,0.4c-5.7-2.2-11.2,0-16.9,0.3c-4.6,0.2-9.4-0.9-14-1.4c-3.5-0.4-6.9-1-10.4-1c-6.2-0.1-12.4,0.5-18.6,0.3
			c-5.7-0.2-11.5-1-17.2-1.4c-5-0.4-9.9-0.8-14.9-1.2c-1.1-0.1-2.5,0.1-3.4-0.4c-9.8-5.1-21.2-4.1-31.2-8.4c-2.1-0.9-4-2-5.9-3.2
			c-2.7-1.7-5-3.3-8.4-4.2c-3.8-1-8.2-5-9.6-8.7c-2.8-7.3-5-15.3-5.2-23.1c-0.3-7.9,0.6-16.5,3.5-23.7c4.1-10.1,6.6-20.6,10.2-30.8
			c3.5-9.9,5.8-20.2,9.5-30c4.3-11.5,8-23.1,15.7-33.3c5.8-7.8,9-17.6,13.6-26.2c1.7-3.2,4.8-5.6,6.8-8.6
			c7.5-11,14.6-22.3,22.4-33.1c4.8-6.7,10.7-12.6,15.9-19.1c4.8-6,4.5-10-1.9-13.2c-3-1.5-7.6-0.3-11.4,0
			c-5.2,0.4-10.4,1.2-15.6,1.5c-3.5,0.2-7-0.5-10.5-0.5c-11.3,0.2-18.8-5-24.7-14.6c-7.2-11.6-6.7-23.2-3.5-35.6
			c2.2-8.6,7.8-14.1,14.8-18.8c2.8-1.9,5.3-4.9,8.3-5.7c5.2-1.4,10.9-2,16.3-2c6,0.1,12.1,1.5,18.1,2c7.8,0.6,15.7,0.8,23.5,1.2
			c1.3,0.1,2.6,0.2,3.8,0.5c0.6,0.1,1.4,1.1,1.7,0.9c5.5-3.5,9.8,2.3,14.9,2c2.7-0.1,5.5,2.3,8.2,2.3c12.3-0.1,19.5,7.6,27.6,15.4
			c8.3,7.9,9.9,17.8,12.9,27.5C440.1,319.4,439.3,322.9,439.3,326.2L439.3,326.2z"/>
		<path class="st0" d="M354.6,187.8c6.3-1.7,12.7-3.4,19-5c1.2-0.3,2.5-0.5,3.8-0.5c6.1-0.2,12.2-0.3,18.4-0.5
			c0.8,0,1.7-0.1,2.4,0.2c4.7,1.9,9.6,3.5,13.8,6.1c2.9,1.8,5.9,4.7,7,7.8c4.6,12.9,5.4,26.5,2.2,39.8c-1.4,6-6,11.1-12.3,13.6
			c-6.6,2.7-13.2,4.5-20.7,3.2c-6.2-1.1-12.7,0-19.1-0.2c-10.5-0.4-20.9-1.4-31.4-1.6c-6.4-0.1-12.7,1-19.1,1.1
			c-8.9,0.1-18.3,0.3-25.4-5.8c-3.4-2.9-5.6-7.8-6.9-12.2c-3.9-12.6-7.5-25.2-10.4-38c-1.9-8.3-8-15.7-5.9-25c0.6-2.8,1-6,0.4-8.7
			c-1.6-7.9-3.9-15.6-5.8-23.4c-1.6-6.5-3-13-4.7-19.5c-0.7-2.7-2-5.2-2.9-7.9c-1.2-3.9-2.4-7.8-3.4-11.8c-1.9-7.6-4.3-15.2-5.3-23
			c-1-8.6-0.8-17.4-0.9-26.1c0-6.8,1.4-13.3,5.9-18.8c1.4-1.8,3.2-3.3,5-4.7c2.2-1.7,4.9-2.8,6.9-4.6c5.4-4.8,11.8-7.4,18.6-8.4
			c8-1.2,15.9-2.4,24.1-1.1c6.5,1,13.6,1,20.1-0.3c13.1-2.5,26-0.8,39.1,0c5.6,0.3,11.4-0.4,17,0.1c11.9,0.9,23.5,2,34.3,8.6
			c9.4,5.8,14.5,14.2,18.4,23.6c1.9,4.5,2.5,9.9-1,14.8c-3.1,4.3-5.2,9.3-8.1,13.8c-1,1.6-3.1,2.4-4.6,3.6c-1.6,1.3-3.1,2.7-4.7,4
			c-0.7,0.6-1.6,1.2-2.5,1.4c-5.5,1.5-11,3.2-16.6,4.2c-2.5,0.5-5.1-0.3-7.7-0.5c-6.3-0.5-12.6-1-18.8-1.6
			c-10.7-1-21.4-2.2-32.1-3.1c-3.9-0.3-8-0.5-11.8,0.3c-1.5,0.3-3.7,3.7-3.4,5.3c1.4,6.6,4.1,11.7,11.7,14.5
			c8.9,3.3,17.2,1.6,25.9,1.4c4.4-0.1,8.9,0.3,13.4,0.2c1.8,0,3.5-0.9,5.3-0.9c5.1,0,10.3-0.4,15.3,0.5c7.9,1.4,15.9,3.1,21.4,9.9
			c1.4,1.7,2.2,3.8,3.2,5.8c1.1,2.1,2.3,4.2,3.4,6.3c0.6,1.1,1.5,2.4,1.3,3.5c-1.4,8.9,0.8,18.6-4.6,26.7
			c-3.2,4.9-6.1,10.7-10.6,13.8c-4,2.7-10.2,3-15.4,3c-12.4-0.1-23.9-4.6-35.8-7.3c-5.8-1.4-12-1-18.1-0.7c-1.5,0.1-3.7,2.5-4.2,4.3
			c-2.6,10.2,4,18.6,14.5,19.1c0.7,0,1.3,0.1,2,0.1C354.4,186.9,354.5,187.4,354.6,187.8L354.6,187.8z"/>
		<path class="st0" d="M626.2,635.3c-6.6,0.9-12.5,0.2-17.2-4.1c-2.1-1.9-3.2-4.8-5.2-6.9c-6-6.3-8.3-13.6-7.8-22.2
			c0.2-3.7-1.3-7.5-0.9-11.2c0.8-7.9,3.1-15.7,3.5-23.7c0.4-7-1.3-14-1.2-21c0-9.3,0.7-18.7,1.4-28c0.8-10.5,2.4-20.9,2.7-31.4
			c0.2-7.3-1.2-14.7-1.9-22.1c-0.1-1.2-0.4-2.3-0.4-3.5c-0.1-16,0-32-0.2-47.9c-0.1-6.4-1.2-12.7-1.3-19.1
			c-0.2-10.3,0.4-20.5,0-30.8c-0.2-6.7-1.6-13.3-2.2-20c-0.2-2.4,0.3-4.8,0.4-7.3c0.1-5.2,0-10.4,0-15.6c0-1.6-0.2-3.3,0-4.9
			c2.2-14.3,0.7-28.4-1.4-42.5c-1-6.7-2-13.6-2.1-20.4c0-6.6,1.6-13.1,1.7-19.7c0.2-7.9-0.8-15.9-0.7-23.8c0-8.6,0-17.4,1.2-25.9
			c1.4-10.7,8.8-16.9,18.3-20.9c2-0.9,3.8-2.6,5.8-3.4c3.2-1.2,6.2-4.1,10.2-1.7c1.2,0.7,3,0.8,4.3,0.6c7.5-1.3,11.9,4.1,17,7.8
			c3.3,2.3,5.9,5.6,8.5,8.7c4.9,5.7,6.5,12.6,7.4,19.9c1.1,8.7,2.4,17.3,3.4,26c0.3,2.5-0.3,5.2-0.6,7.8c-0.1,0.8-0.8,1.8-0.5,2.4
			c2.8,6.5-1.4,12.4-1.6,18.6c-0.1,6.6,0.2,13.2,0.3,19.9c0,0.5,0.2,1,0.1,1.5c-2,11-0.7,22.1-1.4,33.2c-0.7,11.6-1.8,23.1-2.4,34.7
			c-0.2,4.4,0.7,8.9,0.8,13.4c0.1,3.1-0.3,6.2-0.2,9.3c0.1,3.7,0.5,7.4,0.8,11c0.1,1.1-0.2,2.2-0.2,3.4c0.1,7.4,0.3,14.8,0.4,22.2
			c0.1,7.5,0.2,15.1,0.4,22.6c0.1,2.7,0.5,5.5,0.5,8.2c0,2.3-0.4,4.5-0.8,6.8c-0.2,1.3-1.1,2.6-0.9,3.8c1.7,9.5-1,18.9-0.4,28.3
			c0.1,1.8,1,3.5,1,5.3c0,4.4-0.3,8.8-0.4,13.2c-0.2,6.6,0.3,13.2-0.6,19.6c-1.4,9.2-1.9,18.2-1.3,27.5c0.6,10.4-1.1,20.8-1.5,31.3
			c-0.4,12-0.2,24.1-0.9,36.1c-0.5,9.7-4.3,19.1-10.8,25.6C643.5,632.1,635.8,638.1,626.2,635.3L626.2,635.3z"/>
		<path class="st0" d="M502.3,24.9c7.8,2,15.7,3.5,23.3,6.1c5.4,1.8,11.3,3.7,15.2,7.5c5.6,5.4,12.1,10.3,14.7,18.6
			c1.8,5.7,5.4,10.8,8.2,16.2c0.6,1.2,1,2.4,1.1,3.7c0.7,8,1.4,16,2,24c0.2,3.2-0.1,6.5,0,9.8c0.2,9.2,0,18.5,0.9,27.7
			c1.2,11.4,0.9,22.7,0.4,34c-0.5,11.1-1.1,22.1-4.8,32.8c-2.3,6.6-3.2,13.7-5,20.5c-0.7,2.7-3.1,5-3.4,7.6
			c-1.2,9.4-5.8,17.4-9.8,25.6c-0.4,0.8-0.5,2-0.3,2.9c2.2,6.6,5.4,13.1,6.4,19.9c1.6,10.4,3.4,21.3-5.1,30.3
			c-3.2,3.4-6.7,4.4-11.1,3.2c-11.3-3.2-19.6-10.4-26.4-19.6c-2.6-3.6-6.2-3.2-9.9-2.8c-4.6,0.4-9.3,1.5-13.7,0.8
			c-5.3-0.9-10.5-3.1-15.4-5.3c-12.9-5.8-20.1-17.2-26.8-28.9c-1.8-3.2-2.5-7.1-3.6-10.6c-3.2-10.5-2.1-21.7-4.5-32.2
			c-3.1-13.7-0.7-27-0.8-40.5c0-5.1-1.6-10.1-1.4-15.1c0.4-6.9,1.9-13.7,3-20.5c0.2-1.3,0.9-2.5,0.9-3.8c0.2-11.5,3.1-22.4,6.2-33.4
			c1.4-4.9,0.9-10.4,1.2-15.7c0.4-5.9,1.3-11.6,4.9-16.7c1.8-2.6,2.3-6.1,3.3-9.2c2.6-8.5,8.5-14.4,14.9-20.3
			c4.4-4,8.9-7.6,14.2-10.1c1.2-0.6,2.3-1.3,3.6-1.6c5.7-1.3,11.4-2.4,17.1-3.6C502,25.8,502.1,25.3,502.3,24.9L502.3,24.9z
			 M491.2,220.1c0.4-0.1,0.8-0.2,1.2-0.2c0.5-2.6,1.7-5.1,1.5-7.6c-0.6-8.4,4.2-14.1,9.3-19.7c0.5-0.6,2-1.1,2.7-0.8
			c4.3,1.8,9.2,3.2,12.6,6.1c2.8,2.4,4,6.8,5.9,10.3c0.1-0.9,0.5-2.2,0.5-3.4c0.1-7.1-1.1-14.6,0.6-21.3c2.9-11.7,1.2-23.3,1.4-34.9
			c0.1-4.4-0.5-8.9-0.7-13.3c-0.3-6.4,0.4-12.9-0.9-19c-1.7-7.8-5.3-15.3-7.2-23.1c-1.3-5.2-4.3-7.3-9-7.4c-5.1-0.2-10.9,4-11.9,8.4
			c-2,9.1-4.2,18.2-5.4,27.3c-2,15.4-3.5,31-4.8,46.5c-0.7,8.4,0.1,17-1.3,25.2C484,203.3,488.3,211.4,491.2,220.1L491.2,220.1z"/>
		<path class="st0" d="M656.7,68.9c0.7,4.6,1.6,9.1,1.9,13.7c0.2,3.5-0.7,7.1-0.4,10.6c1.2,12.7-2.6,24.5-6.8,36.1
			c-0.7,2-3.3,3.5-5.3,5c-8.2,6.1-17.2,9.8-27.5,8.9c-13.7-1.1-23.1-9.1-30.3-20.2c-0.2-0.3-0.2-0.7-0.3-0.9
			c-10.2-12.3-8.5-26.8-8.3-41.3c0.1-8.2,3.4-15.4,5.8-22.5c3.1-8.8,7.6-18,16.4-23.5c3.1-2,6-4.5,9.2-6.2c2.1-1.1,4.9-2.1,7-1.6
			c8.7,2.2,18.2,2.3,25.5,8.9c3.8,3.4,7.4,6.4,7.8,12.3c0.4,5.1,2.8,10,4.4,15c0.6,1.8,1.2,3.7,1.7,5.5
			C657.2,68.7,656.9,68.8,656.7,68.9L656.7,68.9z"/>
	</g>
</g>
</svg>
