<?xml version="1.0" encoding="UTF-8"?>
<svg id="Layer_2" data-name="Layer 2" xmlns="http://www.w3.org/2000/svg" viewBox="0 0 884.92 643.84">
  <defs>
    <style>
      .cls-1 {
        fill: #fff;
      }
    </style>
  </defs>
  <g id="Layer_1-2" data-name="Layer 1">
    <g>
      <path class="cls-1" d="M70.31,516.51c-5.69,.57-11.91,1.37-18.16,1.74-1.85,.11-3.89-.73-5.65-1.56-2.35-1.11-4.36-3.11-6.78-3.88-6.8-2.19-10.05-8.33-14.81-12.74-6.28-5.83-10.02-13.43-12.05-21.55-1.46-5.81-1.22-12.03-1.99-18.04-.67-5.22-1.88-10.37-2.52-15.59-1.26-10.15-2.46-20.31-3.36-30.5-.88-9.88-1.47-19.8-1.97-29.71-.29-5.86-.02-11.75-.25-17.61-.39-10.31-1.04-20.61-1.44-30.92C.77,321.8-.05,307.45,0,293.1c.04-11.74,.94-23.51,2-35.21,.43-4.77,1.37-9.21-.41-14.05-.82-2.23,1.19-5.34,1.22-8.06,.05-5.48-.64-10.97-.54-16.45,.1-5.87,.77-11.72,1.18-17.58,.45-6.52,2-13.23,.95-19.5-.86-5.14,.59-9.41,2.23-13.35,3.14-7.53,6.31-15.88,11.96-21.3,5.64-5.41,13.99-8.88,21.76-11,14.69-4.01,30.07-4.43,45-1.79,8.75,1.55,17.57,4.85,24.35,11.64,3.23,3.23,7.49,5.55,10.26,9.08,3.75,4.81,6.46,10.42,9.73,15.61,1.43,2.28,3.14,4.38,4.73,6.57,2.16-1.59,4.82-2.8,6.37-4.85,4.42-5.83,8.47-11.95,12.49-18.07,1.15-1.76,1.82-3.87,2.51-5.89,3.91-11.52,9.96-21.45,19.29-29.64,4.69-4.12,9.97-4.23,15.2-5.86,7.58-2.37,14.93-.19,22.36-.49,.5-.02,1.11-.27,1.47-.07,5.88,3.29,12.47,5.81,17.4,10.19,6.21,5.5,11.26,12.33,15.08,19.97,4.34,8.66,9.87,16.77,13.7,25.63,2.3,5.33,2.24,11.65,3.46,17.48,.76,3.64,1.94,7.2,2.92,10.8,.17,.63,.4,1.27,.45,1.92,.46,7.13,.65,14.29,1.39,21.39,.77,7.34,2.42,14.6,3.03,21.94,.58,7.01,.16,14.09,.47,21.13,.17,3.95,.3,8.1,1.58,11.75,1.96,5.58-.44,10.78-.31,16.15,.04,1.58-1.07,3.22-.92,4.75,.8,8.09,2.11,16.13,2.72,24.23,.55,7.32,.24,14.7,.64,22.03,.42,7.58,1.31,15.14,1.84,22.72,.19,2.75-.1,5.54-.08,8.3,.05,7.32,.26,14.64,.2,21.95-.09,9.81-.16,19.62-.62,29.42-.6,12.61-1.57,25.2-2.39,37.79-.03,.5-.07,1.03-.26,1.47-4.28,9.64-5.56,20.16-11.8,29.45-7.08,10.54-15.85,19.22-24.22,28.42-2.11,2.32-4.4,2.67-7.5,.99-2.41-1.3-5.57-1.61-8.4-1.63-6.08-.04-12.41,1.52-18.18,.27-5-1.08-10.12-2.69-14.54-7.14-7.32-7.37-11.44-16.65-16.31-25.14-3.9-6.79-3.07-16.31-4.25-24.64-.18-1.27,.42-2.7,.09-3.9-3.05-11.1-4.95-22.08-.66-33.46,1.67-4.44,1.68-9.52,2.31-14.33,1.14-8.74,2.56-17.48,3.16-26.26,.71-10.28,.37-20.62,1.08-30.9,.35-5.16,2.1-10.22,3.05-15.36,1.14-6.21,1.15-12.83,3.4-18.59,2.47-6.3,2.76-12.99,5.27-19.41,3.44-8.79,2.9-19.13,4.06-28.81,.4-3.34,1.29-6.7,1.11-10.01-.37-6.85-1.23-13.69-2.03-20.51-.4-3.4-1.22-6.75-1.7-10.15-.89-6.21-3.6-11.37-8.72-15.05-3.88-2.79-7.08-1.54-10.08,2.2-4.77,5.96-2.42,12.63-2.9,19.04-.39,5.26-.76,10.53-1.49,15.75-.55,3.97-1.86,7.83-2.45,11.79-1.14,7.66-5.58,11.34-13.06,12.77-8.45,1.61-15.48,.29-18.86-5.31-2.38-3.94-3.98-8.37-5.77-12.64-1.21-2.91-1.93-6.03-3.24-8.89-2.43-5.33-7.29-6.75-12.45-3.91-5.79,3.19-8.62,9.79-7.51,17.68,.93,6.58,2.13,13.13,2.84,19.74,1.71,15.88,3.16,31.78,4.8,47.67,1.55,15.05,3.52,30.06,4.71,45.14,.73,9.23,.21,18.55,.48,27.82,.12,4.25,.82,8.48,1.17,12.73,.09,1.11-.15,2.25-.22,3.38-.33,5.42-.6,10.85-.99,16.26-.54,7.46-1.13,14.91-1.78,22.36-.2,2.3-1.36,4.69-.95,6.83,1.46,7.66-1.07,14.95-4,21.21-4.19,8.93-7.51,19.43-19.63,22.21-5.83,1.33-10.64,6.43-17.92,5.01Z"/>
      <path class="cls-1" d="M820.39,442.8c-.45,8.55-.93,17.1-1.34,25.65-.2,4.27,3.41,7.91,7.84,8.45,4.82,.58,9.61,1.44,14.4,2.21,6.43,1.04,12.92,1.87,19.26,3.32,2.17,.5,4.49,2.21,5.86,4.03,4.19,5.57,6.17,12.17,8,18.84,.73,2.68,2.95,4.97,3.6,7.65,.92,3.79,1.02,7.77,1.45,11.67,.82,7.42,1.69,14.83,2.42,22.25,.6,6.03,.98,12.09,1.54,18.13,.47,4.97,1.41,9.93,1.49,14.9,.06,3.4-.79,6.87-1.6,10.21-1.51,6.26-4.47,12.42-4.65,18.69-.22,7.29-3.52,12.26-8.77,15.7-4.18,2.74-9.52,3.83-14.46,5.25-3.41,.98-6.99,1.41-10.52,1.88-6.13,.82-12.27,1.49-18.41,2.19-.82,.09-1.66-.11-2.49-.07-11.5,.45-23,.96-34.5,1.35-4.76,.16-9.55,.34-14.29,.04-12.05-.76-17.94-6.72-17.95-18.58-.01-18.47,.48-36.95,.49-55.42,0-14.04-.8-28.08-.51-42.1,.23-11.03,1.78-22.03,2.32-33.07,.28-5.59-.78-11.25-.52-16.84,.43-8.93,1.54-17.83,2.22-26.76,.84-10.98,1.79-21.96,2.17-32.96,.25-7-.67-14.04-.66-21.06,.02-9.54,.64-19.08,.61-28.62-.02-7.93-.7-15.87-.89-23.8-.1-4.11,.34-8.23,.39-12.34,.14-11.82,.32-23.65,.25-35.47-.07-11.58-.34-23.16-.7-34.73-.22-7.24-.82-14.46-1.12-21.7-.21-4.95,.21-9.95-.34-14.85-1.27-11.17-3-22.29-4.49-33.43-1.21-9.06-2.76-18.09-3.35-27.19-.29-4.49,1.74-9.09,1.87-13.67,.21-7.19-.5-14.41-.42-21.62,.05-4.76,1.16-9.52,1.15-14.27-.02-10.46,6.21-17.75,12.68-24.59,2.3-2.43,6.96-2.51,10.37-4.05,2.62-1.18,4.89-3.12,7.46-4.44,1.59-.81,3.65-1.88,5.15-1.48,5.42,1.43,10.59,1.14,15.97-.25,2.2-.57,4.82,.54,7.25,.76,5.93,.53,11.86,1.01,17.8,1.49,5.12,.41,13.69,9.38,14.51,14.62,1.75,11.23,4.11,22.36,5.62,33.62,1.13,8.39,1.56,16.9-1.58,25.13-2.23,5.82-10.63,11.06-16.84,10.95-3.34-.06-6.69,1.21-10.07,1.57-1.88,.2-3.91,.09-5.72-.41-3.55-.98-5.13,.33-5.08,3.8,.04,2.81,.13,5.65,.5,8.43,1.37,10.48,2.86,20.94,4.32,31.4,.14,.99,.43,1.96,.53,2.95,.54,5.02,1.17,10.04,1.53,15.08,.45,6.38,.52,12.78,1.06,19.15,.17,2.06,.95,5.47,2.07,5.74,1.98,.48,4.69-.52,6.64-1.67,7.98-4.72,16.34-8.04,25.67-5.97,2.18,.48,4.42,3.4,5.47,5.72,4.1,9.08,8.05,18.25,11.43,27.62,2.97,8.22,5.57,16.64,7.46,25.17,1.3,5.88,1.08,12.1,1.6,18.16,.65,7.45,1.76,14.89,1.96,22.35,.24,8.49-.25,17-.52,25.5-.18,5.76-.54,11.52-.8,17.28-.34,7.56-3.65,13.96-7.97,19.88-2.99,4.11-5.9,8.48-9.72,11.69-1.98,1.67-5.86,1.34-8.89,1.4-2.46,.05-5-1.25-7.38-.95-6.81,.86-13.89,1.37-20.16,3.81-2.78,1.08-4.6,6.29-5.59,9.97-1.45,5.39-1.75,11.09-2.54,16.66,.14,.02,.28,.04,.42,.05Z"/>
      <path class="cls-1" d="M519.98,344.08c-.7,11.64-1.35,20.79-1.77,29.94-.22,4.74,.55,9.59-.18,14.22-.96,6.08-2.7,12.08-4.62,17.94-1.24,3.78-2.79,7.14,.96,10.4,.69,.6,.93,2.14,.82,3.18-.94,8.9-1.62,17.86-3.17,26.66-1.25,7.12-3.69,14.04-5.45,21.08-2.35,9.43-2.71,18.81-.85,28.53,1.29,6.69,3.7,11.04,10.69,12.19,2.33,.38,3.8,.14,4.4-2.49,1.15-5.05,4.65-9.66,2.58-15.31-.26-.7,.55-1.81,.92-2.7,2.4-5.81,4.59-11.42,4.13-18.14-.42-6.1,1.66-12.32,1.83-18.51,.22-8.15-.35-16.33-.59-24.5,0-.32-.26-.68-.18-.96,2.56-9.34-1.91-18.42-1.13-27.63,1.42-16.56-1.9-33.22,2.02-49.8,2.09-8.84,3.33-17.77,9.08-25.11,1.24-1.59,3.59-3.25,5.44-3.25,7.33,0,14.88-.28,21.9,1.4,4,.96,7.74,5.04,10.52,8.56,3.54,4.49,6.59,9.6,8.72,14.9,1.45,3.61,1.15,7.99,1.3,12.04,.23,6.26,.12,12.53,.27,18.8,.08,3.46,.48,6.91,.6,10.37,.26,7.62,.33,15.24,.69,22.86,.34,7.27,1.08,14.52,1.39,21.79,.21,5.1-.04,10.23-.05,15.34-.01,9.03,.42,18.08-.13,27.07-.46,7.52-2.23,14.95-3.09,22.46-.43,3.74,.1,7.58-.17,11.35-.37,5.21-1.19,10.38-1.62,15.58-1.04,12.58-1.74,25.18-3.03,37.73-.54,5.24,1.18,10.9-2.36,15.72-.26,.36-.31,.98-.25,1.46,1.21,10.47-4.51,19.01-7.66,28.31-4.15,12.26-14.1,19.57-22.71,28.07-.34,.34-.81,.63-1.27,.76-9.47,2.73-18.93,5.49-28.42,8.14-14.79,4.12-27.73-2-40.11-8.47-5.36-2.8-9.13-8.68-13.6-13.18-2.41-2.43-5.13-4.67-7.06-7.44-2.01-2.88-3.31-6.28-4.78-9.51-1.82-4-3.5-8.06-5.22-12.11-.51-1.21-1.27-2.43-1.35-3.69-1.06-16.65-2.27-33.29-2.92-49.96-.38-9.78,.28-19.59,.28-29.38,0-9.87-.46-19.75-.26-29.61,.07-3.21,2.4-6.41,2.3-9.58-.31-10.18,2.6-20.27-.13-30.6-1.29-4.87,.12-10.42,.11-15.66,0-4.24-.44-8.47-.43-12.71,.03-10.02-.25-20.07,.45-30.04,.76-10.74,2.33-21.44,3.91-32.1,.47-3.21,2.14-6.24,3.27-9.35,2.31-6.39,4.59-12.8,6.94-19.18,1.93-5.24,10.14-10.67,15.83-10.7,1.45,0,3.06-.1,4.32-.73,3.69-1.85,6.97-1.97,10.76,.17,3.66,2.07,8.48,2.39,11.68,4.89,4.71,3.69,11.18,5.85,12.06,13.65,.73,6.44,3.22,12.68,4.36,16.88Z"/>
      <path class="cls-1" d="M675.51,596.82c-.67-7.16-1.86-14.33-1.82-21.49,.03-5.61,1.64-11.2,2.47-16.82,.55-3.69,.94-7.41,1.43-11.11,.4-3.07,1.03-6.13,1.24-9.22,.57-8.51,1.04-17.03,1.4-25.55,.32-7.46-1.4-15.6,1.06-22.23,3.54-9.56,1.08-19.05,2.68-28.44,.7-4.13-1.03-8.62-1.15-12.95-.15-5.04,.23-10.1,.43-15.15,.16-3.91,.47-7.82,.59-11.74,.31-10.21,.66-20.43,.8-30.65,.11-7.91-.29-15.83-.08-23.73,.22-8.47,.82-16.93,1.36-25.39,.75-11.68,1.69-23.36,2.37-35.05,.38-6.47,.31-12.84-.47-19.43-.98-8.33,1.3-17.05,2.19-25.6,.7-6.79,1.34-13.59,2.17-20.37,.74-6.01,1.9-11.98,2.55-18,.66-6.02,.78-12.11,1.39-18.14,1.5-14.74-.07-29.74,4.78-44.25,1.71-5.1,.86-11.06,1.15-16.63,.09-1.63,.15-3.26,.11-4.89-.16-5.73-.36-11.46-.56-17.18-.27-7.87-.76-15.73-.75-23.6,0-3.82-2.64-7.98-6.8-8.55-2.26-.31-4.68-.16-6.92,.3-11.04,2.27-17.16-.9-20.79-11.4-1.8-5.21-4.68-10.77-4.18-15.88,.63-6.35,1.46-13.19,6.45-18.72,6.14-6.81,12.9-12.18,21.54-15.38,3.35-1.24,6.21-3.77,9.42-5.46,2.73-1.43,5.58-2.74,8.51-3.67,3.74-1.19,7.62-1.95,11.43-2.91,5.28-1.33,10.55-2.7,15.83-4,4.03-.99,8.16-1.65,12.07-2.97,1.69-.57,2.73-2.86,4.4-3.68C761.29,2.27,771.52,.25,781.95,0c3.31-.08,6.88,2.03,9.99,3.76,4.59,2.56,10.54,4.73,12.85,8.8,2.57,4.53,5.8,9.68,5,15.99-.86,6.76-.55,13.67-.64,20.51-.06,4.3-2.75,6.2-5.8,8.9-6.67,5.9-15.38,5.09-22.7,8.7-8.38,4.13-17.51,6.77-26.35,9.93-3.03,1.08-6.3,1.56-9.26,2.79-1.09,.45-2.17,2.2-2.31,3.46-1.44,12.56-.71,24.96,2.01,37.38,1.09,4.98,.35,10.38,.26,15.59-.1,5.88-.53,11.75-.59,17.63-.09,9.18-.14,18.36,.07,27.53,.17,7.62,.82,15.22,1.12,22.84,.32,8.23,.31,16.48,.76,24.7,.38,6.84,1.46,13.65,1.78,20.5,.26,5.58-.41,11.2-.19,16.79,.32,8.19,1.2,16.37,1.56,24.56,.11,2.4-.84,4.84-1.1,7.28-.65,6.11,1.11,12.26-2.13,18.42-1.45,2.75,.98,7.3,.79,10.99-.42,8.02-1.63,15.97,.12,24.04,.48,2.2-1.02,4.76-1.21,7.19-.53,6.85-.93,13.72-1.21,20.58-.09,2.26,.36,4.54,.57,6.82,.09,.97,.53,2.05,.24,2.88-4.4,12.7-2.71,25.8-2.75,38.8-.01,4.75-1.05,9.52-.95,14.26,.29,12.9,1.34,25.78,1.33,38.68,0,12.48-.98,24.97-1.49,37.45-.12,2.81-.53,5.7-.05,8.42,1.86,10.5,.55,20.9-.15,31.37-.54,8.11-.42,16.29-.2,24.43,.27,9.86,2.06,19.81,1.16,29.52-1.07,11.45-13.18,22.43-26.94,17.96-5.62-1.82-11.75-2.43-17.69-2.76-7.14-.4-14.1-5.29-16.23-12.09-.68-2.18-2.29-4.05-3.22-6.17-1.6-3.65-3.01-7.39-4.5-11.09,.54-.17,1.09-.33,1.63-.5Z"/>
      <path class="cls-1" d="M439.3,326.25c-.05,17.28-4.51,33.53-11.61,49.17-3.35,7.38-7.98,13.74-13.37,19.79-6.44,7.24-12.28,15.02-18.2,22.71-5.1,6.64-10.04,13.41-14.87,20.25-5.48,7.75-10.57,15.8-16.22,23.43-4.92,6.63-10.77,12.59-15.47,19.36-3.4,4.9-5.86,10.53-8.2,16.07-1.51,3.56-2.64,7.5-2.84,11.33-.22,3.96,.19,8.25,1.56,11.95,2.71,7.36,13.17,9.91,21.35,7.73,7.88-2.1,15.92-3.1,23.58-1,6.14,1.69,11.74,1,17.52-.13,3.12-.61,5.4-.34,8.22,1.59,4.69,3.22,10.32,5.06,15.03,8.25,2.54,1.72,4.3,4.86,5.89,7.66,1.85,3.27,3.28,6.81,4.6,10.34,.55,1.46,.38,3.2,.46,4.81,.14,2.81-.91,6.75,.54,8.2,4,3.99,2.55,8.21,2.21,12.55-.07,.83-.4,1.77-.14,2.47,2.82,7.48-2.02,13.16-5.79,17.91-3.43,4.31-9.57,6.53-14.66,9.43-1.17,.67-3.12,.86-4.37,.38-5.73-2.23-11.23,.04-16.85,.27-4.65,.19-9.36-.9-14.04-1.41-3.46-.38-6.93-1.01-10.4-1.04-6.19-.06-12.38,.5-18.56,.33-5.74-.16-11.45-.95-17.18-1.43-4.96-.42-9.93-.78-14.89-1.17-1.15-.09-2.48,.1-3.43-.4-9.8-5.13-21.22-4.11-31.22-8.38-2.06-.88-4.03-2.01-5.94-3.18-2.68-1.65-4.98-3.34-8.39-4.23-3.81-.99-8.2-4.95-9.65-8.67-2.84-7.32-4.96-15.32-5.24-23.11-.28-7.89,.58-16.46,3.53-23.67,4.13-10.08,6.63-20.59,10.25-30.77,3.51-9.88,5.84-20.19,9.54-29.98,4.33-11.46,8.05-23.08,15.72-33.27,5.84-7.77,8.95-17.56,13.65-26.24,1.71-3.16,4.76-5.58,6.82-8.59,7.53-10.99,14.64-22.28,22.43-33.08,4.82-6.69,10.73-12.57,15.86-19.06,4.75-6.01,4.47-9.96-1.92-13.16-3.04-1.53-7.58-.26-11.42,.03-5.2,.38-10.37,1.24-15.57,1.5-3.47,.17-6.97-.55-10.46-.5-11.27,.17-18.77-5.03-24.72-14.59-7.22-11.61-6.7-23.19-3.5-35.58,2.22-8.61,7.84-14.1,14.75-18.82,2.8-1.91,5.26-4.89,8.33-5.7,5.25-1.4,10.86-2.03,16.31-1.96,6.04,.08,12.06,1.52,18.11,1.98,7.83,.6,15.69,.8,23.53,1.21,1.28,.07,2.57,.24,3.83,.52,.62,.14,1.43,1.06,1.7,.89,5.51-3.45,9.77,2.27,14.93,2.02,2.7-.13,5.48,2.27,8.22,2.26,12.26-.06,19.46,7.62,27.65,15.35,8.33,7.87,9.9,17.77,12.86,27.46,.93,3.04,.14,6.6,.14,9.92Z"/>
      <path class="cls-1" d="M354.56,187.76c6.33-1.67,12.66-3.36,19.01-4.98,1.23-.32,2.54-.46,3.81-.5,6.11-.19,12.23-.33,18.35-.47,.81-.02,1.71-.11,2.42,.19,4.66,1.92,9.56,3.47,13.81,6.08,2.88,1.77,5.88,4.7,6.98,7.77,4.65,12.93,5.35,26.49,2.25,39.75-1.39,5.96-6.02,11.09-12.26,13.61-6.6,2.67-13.17,4.52-20.68,3.22-6.19-1.07-12.72,.01-19.08-.24-10.47-.42-20.91-1.42-31.38-1.64-6.35-.13-12.71,1-19.07,1.09-8.93,.13-18.28,.29-25.44-5.83-3.36-2.87-5.56-7.78-6.92-12.19-3.88-12.55-7.46-25.24-10.39-38.04-1.91-8.34-8.01-15.68-5.9-25.02,.64-2.82,.99-5.96,.41-8.73-1.65-7.87-3.87-15.61-5.81-23.42-1.61-6.48-3.04-13.01-4.74-19.47-.71-2.69-2.04-5.21-2.89-7.87-1.25-3.9-2.44-7.82-3.43-11.79-1.9-7.63-4.33-15.21-5.26-22.97-1.04-8.62-.83-17.4-.85-26.11-.02-6.81,1.43-13.34,5.88-18.78,1.44-1.76,3.17-3.34,4.98-4.72,2.2-1.68,4.88-2.79,6.92-4.62,5.36-4.8,11.77-7.36,18.63-8.4,7.95-1.21,15.86-2.42,24.13-1.15,6.54,1,13.57,.97,20.06-.28,13.13-2.53,26.05-.75,39.08-.02,5.65,.32,11.37-.39,17,.06,11.87,.95,23.55,1.96,34.34,8.57,9.42,5.76,14.54,14.21,18.44,23.6,1.87,4.5,2.51,9.86-.97,14.77-3.07,4.33-5.21,9.31-8.11,13.78-1.01,1.56-3.09,2.41-4.64,3.64-1.61,1.29-3.12,2.69-4.73,3.96-.74,.58-1.57,1.16-2.46,1.4-5.51,1.5-11,3.15-16.6,4.22-2.45,.47-5.14-.3-7.72-.52-6.28-.52-12.56-.99-18.84-1.58-10.69-1.02-21.37-2.23-32.07-3.13-3.93-.33-8.03-.49-11.83,.3-1.5,.31-3.7,3.73-3.37,5.26,1.42,6.58,4.11,11.7,11.66,14.54,8.86,3.33,17.22,1.62,25.87,1.37,4.44-.13,8.9,.27,13.35,.21,1.77-.02,3.52-.94,5.28-.94,5.11-.01,10.32-.36,15.3,.51,7.9,1.38,15.93,3.09,21.37,9.9,1.36,1.7,2.19,3.83,3.25,5.77,1.14,2.08,2.31,4.15,3.37,6.26,.57,1.13,1.49,2.45,1.32,3.54-1.41,8.93,.77,18.55-4.58,26.71-3.2,4.88-6.07,10.67-10.64,13.77-3.99,2.7-10.16,3-15.35,2.96-12.35-.1-23.92-4.56-35.81-7.33-5.78-1.35-12.05-1-18.07-.74-1.5,.06-3.74,2.53-4.18,4.27-2.61,10.21,3.96,18.65,14.49,19.08,.67,.03,1.33,.07,2,.11,.1,.4,.2,.81,.31,1.21Z"/>
      <path class="cls-1" d="M626.19,635.31c-6.59,.92-12.49,.25-17.24-4.07-2.09-1.9-3.23-4.81-5.22-6.88-6.02-6.26-8.32-13.61-7.81-22.2,.22-3.7-1.3-7.54-.91-11.2,.85-7.93,3.06-15.74,3.52-23.67,.4-6.96-1.27-14.02-1.24-21.04,.05-9.33,.7-18.67,1.39-27.98,.78-10.48,2.4-20.93,2.68-31.41,.2-7.34-1.23-14.73-1.93-22.1-.11-1.16-.36-2.31-.36-3.46-.07-15.97,0-31.95-.23-47.92-.09-6.36-1.16-12.7-1.26-19.06-.17-10.26,.39-20.53,.05-30.78-.22-6.67-1.57-13.3-2.19-19.96-.22-2.39,.34-4.84,.37-7.27,.06-5.19,0-10.38-.02-15.57,0-1.64-.23-3.31,.02-4.9,2.19-14.26,.73-28.36-1.39-42.48-1.01-6.74-2.04-13.56-2.09-20.35-.05-6.58,1.56-13.15,1.69-19.74,.15-7.93-.76-15.88-.72-23.82,.05-8.64,.04-17.37,1.18-25.9,1.43-10.67,8.85-16.87,18.34-20.95,2.05-.88,3.77-2.6,5.85-3.36,3.22-1.18,6.18-4.1,10.16-1.67,1.15,.71,2.96,.82,4.35,.57,7.49-1.33,11.92,4.15,17.01,7.77,3.26,2.32,5.87,5.62,8.51,8.71,4.87,5.68,6.49,12.65,7.41,19.86,1.1,8.67,2.44,17.32,3.4,26.01,.28,2.54-.35,5.19-.62,7.78-.09,.82-.76,1.78-.5,2.39,2.78,6.52-1.44,12.41-1.56,18.63-.12,6.61,.16,13.23,.27,19.85,0,.5,.2,1.02,.11,1.49-2.02,11-.73,22.14-1.41,33.19-.71,11.56-1.8,23.1-2.37,34.66-.22,4.44,.67,8.93,.84,13.41,.12,3.11-.28,6.23-.18,9.34,.11,3.69,.54,7.36,.76,11.05,.07,1.11-.19,2.24-.17,3.36,.13,7.4,.31,14.8,.44,22.2,.13,7.54,.19,15.08,.36,22.62,.06,2.74,.5,5.48,.48,8.22-.02,2.26-.42,4.52-.76,6.76-.2,1.28-1.08,2.6-.86,3.76,1.73,9.49-1.01,18.88-.43,28.33,.11,1.79,1.03,3.55,1.04,5.32,.02,4.4-.31,8.81-.44,13.22-.19,6.56,.35,13.22-.64,19.65-1.42,9.18-1.92,18.17-1.35,27.52,.64,10.36-1.07,20.85-1.45,31.29-.44,12.04-.23,24.11-.91,36.13-.55,9.69-4.33,19.12-10.81,25.63-5.82,5.84-13.57,11.8-23.16,9.07Z"/>
      <path class="cls-1" d="M502.26,24.88c7.78,1.97,15.68,3.55,23.29,6.05,5.37,1.76,11.34,3.72,15.24,7.48,5.6,5.4,12.13,10.31,14.68,18.62,1.75,5.71,5.44,10.81,8.17,16.23,.58,1.15,1.03,2.45,1.14,3.72,.73,8,1.43,16,1.96,24.01,.22,3.24-.1,6.51-.03,9.77,.22,9.23-.05,18.52,.93,27.67,1.22,11.36,.91,22.68,.42,33.99-.48,11.06-1.12,22.12-4.85,32.82-2.3,6.62-3.2,13.71-5.05,20.5-.73,2.66-3.06,5-3.39,7.65-1.17,9.42-5.77,17.38-9.82,25.63-.4,.81-.53,2-.26,2.85,2.15,6.65,5.42,13.11,6.44,19.91,1.57,10.41,3.36,21.29-5.06,30.33-3.21,3.44-6.67,4.43-11.13,3.18-11.34-3.16-19.6-10.4-26.37-19.62-2.65-3.61-6.2-3.17-9.9-2.82-4.57,.43-9.3,1.55-13.71,.82-5.29-.88-10.47-3.06-15.43-5.27-12.94-5.79-20.13-17.17-26.76-28.85-1.82-3.2-2.52-7.05-3.6-10.64-3.16-10.52-2.13-21.71-4.49-32.18-3.08-13.67-.73-27-.79-40.48-.02-5.05-1.65-10.14-1.35-15.14,.4-6.86,1.92-13.66,3.01-20.48,.21-1.29,.91-2.54,.93-3.82,.17-11.5,3.07-22.44,6.16-33.43,1.39-4.94,.85-10.43,1.23-15.67,.43-5.91,1.3-11.58,4.93-16.7,1.82-2.57,2.33-6.1,3.29-9.24,2.6-8.53,8.54-14.41,14.89-20.28,4.38-4.05,8.88-7.6,14.23-10.12,1.18-.56,2.34-1.3,3.59-1.57,5.69-1.27,11.41-2.4,17.12-3.58,.1-.44,.21-.89,.31-1.33Zm-11.04,195.26c.39-.08,.79-.16,1.18-.24,.55-2.55,1.71-5.14,1.53-7.64-.62-8.43,4.22-14.1,9.3-19.7,.55-.61,2-1.08,2.68-.8,4.33,1.82,9.17,3.16,12.62,6.09,2.84,2.41,4,6.82,5.89,10.32,.13-.9,.46-2.16,.48-3.42,.14-7.11-1.09-14.55,.59-21.26,2.92-11.71,1.24-23.31,1.43-34.95,.07-4.42-.47-8.85-.66-13.27-.27-6.35,.36-12.87-.93-19-1.66-7.85-5.3-15.27-7.24-23.09-1.29-5.23-4.27-7.28-9.03-7.42-5.09-.15-10.94,3.97-11.89,8.38-1.95,9.08-4.17,18.15-5.37,27.35-2.01,15.45-3.49,30.99-4.84,46.51-.73,8.38,.1,16.96-1.27,25.2-1.68,10.08,2.6,18.22,5.51,26.94Z"/>
      <path class="cls-1" d="M656.67,68.87c.66,4.55,1.59,9.08,1.91,13.66,.24,3.5-.74,7.1-.41,10.58,1.22,12.74-2.61,24.49-6.84,36.12-.74,2.04-3.32,3.53-5.27,4.98-8.15,6.08-17.2,9.78-27.54,8.92-13.71-1.15-23.09-9.08-30.29-20.15-.18-.27-.15-.69-.35-.93-10.17-12.3-8.5-26.76-8.34-41.29,.09-8.24,3.38-15.44,5.83-22.47,3.06-8.78,7.63-17.98,16.41-23.5,3.14-1.97,5.97-4.5,9.23-6.23,2.08-1.1,4.91-2.1,7.02-1.58,8.74,2.18,18.21,2.31,25.51,8.89,3.82,3.44,7.38,6.38,7.85,12.32,.4,5.07,2.84,9.98,4.39,14.96,.57,1.83,1.15,3.66,1.73,5.49-.28,.07-.56,.15-.83,.22Z"/>
    </g>
  </g>
</svg>